<!--<svg xmlns="http://www.w3.org/2000/svg" id="Layer_1" viewBox="0 0 66.1 24.7"><style>.st0{fill:#fff}.st1{fill:#f9a83a}</style><switch><g><g><g><path d="M60.2 24.1c-.8.1-1.3.1-1.5.2-.4.2-1.3.4-2.4.4-1.4 0-2.7-.5-3.8-1.3h-.8c-.3 0-.5 0-.8-.1-1.1.4-2.1.4-2.7.4H48c-1.4.1-2.8-.2-4-.8-.6.2-1.1.3-1.7.3l-3.7.1c-1.7 0-3.2-.6-4.4-1.7-.5 0-1-.1-1.4-.2-.6.7-1.4 1.3-2.4 1.8-1.9.9-4 1-6 .2-.2-.1-.5-.2-.7-.3l-2.3.3h-.7c-.3.1-.5.3-.7.4-1.5.7-2.9.7-3.5.7H16c-1.7 0-3.4-.5-4.7-1.4-.4.1-.9.2-1.3.2-.9.6-2 1-3.2 1.1h-.4c-3.3 0-6-2.5-6.3-5.8v-.1c0-.5-.1-1.6 0-2.8 0-.6.1-1.5.1-1.7 0-.8.2-1.6.5-2.4-.2-.8-.1-1.6 0-2.4v-.3c.1-.7.3-2.1 1-3.5C3 3 5.4 1.5 8.1 1.5 9 1 9.9.8 10.9.8h.3c2 .1 3.8 1.1 4.9 2.7.9-.8 2-1.3 3.2-1.5 2.4-.3 4.4-.4 6.1-.1.9-.8 2.1-1.4 3.3-1.5l2.6-.4h.8c1.5 0 3 .6 4.2 1.6h.2l3.8-.1c1.6 0 3-.1 3.3-.1h.5c1.4 0 2.9.5 4 1.4 1.1-.8 2.4-1.2 3.8-1.2h1.3c1-.6 2.1-1 3.3-1l3.2-.1h.1c3.4 0 6.2 2.8 6.3 6.2 0 1.6-.5 3-1.5 4.2v2.9c.9 1 1.4 2.3 1.5 3.7.2 3.4-2.4 6.3-5.9 6.6z" class="st0"/></g><path d="M60 20.5c-1.3.1-2.1.2-2.3.3l-.1.1c-.3.1-.7.3-1.2.3-.6 0-1.3-.2-1.8-.7-.2-.2-.4-.4-.5-.6h-2.3c-.4 0-.8-.1-1.1-.3-.1.1-.3.1-.4.2-.8.4-1.5.4-2 .4h-.5c-1.5 0-2.7-.5-3.5-1.4-.5.5-1.2.8-1.9.8l-3.7.1c-1.3 0-2.5-1-2.7-2.2-.5.3-1 .5-1.6.5-.6 0-1.2-.2-1.7-.5-.1-.1-.2-.2-.3-.2-.3.2-.7.2-1.1.2H31c-.4 1.2-1.1 2-2.2 2.5-.5.2-1.1.4-1.6.4s-1.1-.1-1.6-.3c-.5-.2-.9-.5-1.2-.8-.2.1-.4.1-.6.2l-2.9.4h-.4c-.3 0-.5 0-.8-.1-.4.4-.9.6-1.3.8-.8.4-1.5.4-2 .4h-.5c-1.8 0-3.2-.8-4-1.9-.8.5-1.8.8-2.7.8h-.6c0 .1-.1.1-.1.2-.5.5-1.2.9-1.9.9h-.2c-1.4 0-2.6-1.1-2.7-2.6v-.1c0-.5-.1-1.4 0-2.4 0-.7.1-1.8.1-1.8 0-.7.3-1.3.7-1.8-.4-.8-.5-1.7-.3-2.7v-.2c.1-.6.2-1.5.6-2.4.7-1.3 2-2 3.5-2H9c.5-.4 1.1-.7 1.8-.7 1.5 0 2.7 1.3 2.7 2.8v1.1c.5-.2 1.1-.3 1.7-.3.3 0 .5 0 .8.1.4-.5 1-.8 1.6-.9.1-.2.2-.3.3-.5.4-.6 1.1-1 1.8-1.1.6-.1 1.8-.2 3.2-.2 1.6 0 2.9.2 3.9.7.3-1.1 1.1-1.9 2.3-2.1l2.6-.4h.4c.8 0 1.5.3 2 .9.2.2.5.6.6.9l.1.3c.5-.3 1-.5 1.6-.5l3.9-.1c1.9 0 3.6-.1 3.6-.2h.2c.7 0 1.5.3 2 .8.4.4.7.9.8 1.5h.2c.3 0 .5 0 .8.1.4-.5 1-.8 1.6-.9.5-.7 1.4-1.3 2.4-1.3h2.6c.5-.6 1.2-1 2.1-1h3.2c1.5 0 2.7 1.2 2.8 2.7 0 1.1-.6 2.1-1.5 2.5v6.1c.8.4 1.4 1.3 1.5 2.3.1 1.5-1.1 2.8-2.6 2.9z" class="st1"/><path d="M32.3 8.5l-.7 3.6 2-.3z" class="st1"/><path d="M8.4 12c-.7-.1-1.1-.6-.9-2v-.2c.2-1.2.3-1.5.9-1.5.2 0 .4.1.6.3.2.2.6.5.8 1.1.2.4.2.7.3 1v.4c0 .2.2.4.5.5.3.1.6-.2.7-.5 0 0 .2-3.8.2-3.9 0-.3-.3-.6-.6-.6s-.6.3-.6.6v1.1c-.5-.5-1.1-1-1.8-1C6.6 7 6.4 8.7 6.3 9.7v.2c-.2 1.9.4 3.1 1.9 3.4 1.6.3 2.7.6 2.7 1.6 0 .4-.2.8-.6 1.1-.4.4-1 .5-1.6.4-.2 0-.3-.1-.5-.1-.2-.1-.8-.4-1-.8-.1-.4-.2-.9-.2-1.2v-.2c0-.3-.3-.6-.6-.6s-.6.3-.6.6c0 0 0 1.2-.1 1.9-.1 1.2 0 2.1 0 2.2 0 .3.3.6.6.6s.6-.3.6-.6v-1.1c.4.3 1 .6 1.7.7.9.2 1.8-.1 2.5-.7.6-.5 1-1.3 1-2 0-2.5-2.5-2.9-3.7-3.1M25.2 10.3c-.1.1-.2.2-.4.3-.1.1-.4.2-.5.2l-.3.1c-.4.2-1 .3-1.6.4V8.5c1.6 0 3 .1 3.3.6v.2c0 .2-.2.6-.5 1m3.5 5.4c-.3-.1-.7.1-.8.4-.2.7-.4.7-.5.8-.1.1-.3 0-.6-.1 0 0-.1-.2-.2-.3-.1-.2-.2-1-.2-1.5 0-1.8-.4-2.8-.9-3.3.3-.2.6-.5.6-.5.7-1 .9-1.8.5-2.5-1-1.7-5.3-1.2-6.7-1-.3 0-.6.4-.5.7 0 .3.4.6.7.5.3 0 .6-.1.9-.1v2.8h-.3c-.3 0-.6.3-.6.6s.3.6.6.6h.3v3.5l-.8.1c-.3 0-.6.4-.5.7 0 .3.4.6.7.5l2.9-.4c.3 0 .6-.4.5-.7 0-.3-.4-.6-.7-.5l-.9.1v-3.5c.6-.1 1.1-.2 1.6-.4h.2c.2 0 .4.1.5.3.2.3.4.9.5 2.4 0 .3.1 1.5.3 2 .1.2.4.7.9.9.4.1.9.3 1.5 0 .5-.3.9-.6 1.1-1.5.4-.2.2-.5-.1-.6M50.5 13.8c-.3 0-.6.3-.6.6v.8c0 .3-.1.7-.2.8-.1.2-.2.3-.4.5-.1.1-.3.2-.5.3-.2.1-.3.1-.7.1h-.4c-1.6.1-1.8-1.2-1.8-1.5v-2.6c.1-1 .3-1.7.7-2 .3-.2.7-.1 1.4.1.8.3 1.3 1.2 1.4 1.2.1.2.4.3.7.3.3-.1.4-.3.4-.6V9.1c0-.3-.3-.6-.6-.6s-.6.3-.6.6v1.1c-.2-.2-.5-.3-.8-.5-.3-.2-1.5-.7-2.4-.1-.7.5-1.2 1.4-1.3 2.9v2.8c.1.9.8 2.7 3 2.7h.3c.4 0 .8 0 1.2-.2.3-.1.6-.3.9-.6.2-.2.3-.4.5-.7.2-.4.3-1.1.4-1.3v-1c0-.2-.3-.4-.6-.4M60.4 17.8c0-.3-.3-.6-.6-.6-.2 0-.5 0-.8.1 0-1 0-3.1-.1-9.9h.9c.3 0 .6-.3.6-.6s-.3-.6-.6-.6l-3.2.1c-.3 0-.6.3-.6.6s.3.6.6.6h1v4.2l-3.6.6V8.5h1c.3 0 .6-.3.6-.6s-.3-.6-.6-.6h-3.2c-.3 0-.6.3-.6.6s.3.6.6.6h1v8.1h-1c-.3 0-.6.3-.6.6s.3.6.6.6l3.3.1c.3 0 .6-.3.6-.6s-.3-.6-.6-.6h-1v-3.1l3.6-.6v4.6c-.8.2-1.4.2-1.7.6-.2.2-.2.6.1.8.2.2.5.1.9 0 .3-.2 1.5-.3 2.9-.4.3-.2.5-.5.5-.8" class="st0"/><path d="M31.6 12.1l.7-3.6 1.3 3.3-2 .3zm5.3 1c-.2.1-.5.2-1.1.5l-.8-1.9-2.3-5.5c0-.1-.1-.3-.2-.3-.1-.1-.3-.2-.5-.2l-2.6.3c-.3 0-.6.3-.5.7 0 .3.3.6.7.5 0 0 1-.1 1.8-.2-.2 1.1-1.1 5.6-1.4 7l-1.8-.1c-.3 0-.6.2-.6.6 0 .3.2.6.6.6l3 .1c.3 0 .6-.2.6-.6 0-.3-.2-.6-.6-.6l.1-.9 2.8-.5.6 1.5c-.5.3-.7.4-1 .7-.2.3-.1.6.1.8.3.2.7.1.9-.1.3-.4 1.4-.9 2.5-1.3.3-.1.5-.5.4-.8-.1-.2-.4-.4-.7-.3" class="st0"/><path d="M44.1 7s-1.8.1-3.8.2l-3.9.1c-.2 0-.3.1-.5.2-.1.1-.2.3-.1.5l.5 3c0 .3.4.6.7.5.3 0 .5-.3.5-.6 0 0-.2-1.6-.4-2.4h2.6v7.9h-1.3c-.3 0-.6.3-.6.6s.3.6.6.6l3.7-.1c.3 0 .6-.3.6-.6s-.3-.6-.6-.6h-1.2V8.4c1 0 1.9-.1 2.5-.1v1.2c0 .6.1.8.1.9.2.3.5.4.8.2.2-.1.3-.4.3-.6 0 0 0-1.4.1-2.2 0-.2 0-.3-.2-.5 0-.2-.2-.3-.4-.3M18.6 14.4c-.3 0-.6.3-.6.6V15.9c0 .2-.1.6-.2.8-.1.2-.2.3-.4.5-.1.1-.3.2-.5.3-.2.1-.3.1-.7.1h-.4c-1.6 0-1.8-1.2-1.8-1.5v-2.6c.1-1 .3-1.7.7-2 .3-.2.7-.1 1.4.1.8.3 1.4 1.2 1.4 1.2.1.2.4.3.7.3.3-.1.4-.3.4-.6V9.8c0-.3-.3-.6-.6-.6s-.6.3-.6.6v1.1c-.2-.2-.5-.4-.8-.5-.4-.2-1.5-.6-2.5-.1-.7.5-1.2 1.4-1.3 2.9V16c.1.9.8 2.7 3.1 2.7h.3c.4 0 .8 0 1.2-.2.3-.1.6-.3.9-.6.2-.2.3-.4.5-.7.2-.4.3-1.1.4-1.3v-1c0-.2-.3-.5-.6-.5" class="st0"/></g></g></switch></svg>
-->
<svg version="1.1" id="Layer_1" xmlns="http://www.w3.org/2000/svg" xmlns:xlink="http://www.w3.org/1999/xlink" x="0px" y="0px"
	 width="100%" viewBox="0 0 200 200" enable-background="new 0 0 200 200" xml:space="preserve">
<path fill="#FFFEFE" opacity="1.000000" stroke="none" 
	d="
M100.000000,201.000000 
	C66.687195,201.000000 33.874397,201.000000 1.030797,201.000000 
	C1.030797,134.395569 1.030797,67.791107 1.030797,1.093328 
	C67.562645,1.093328 134.125458,1.093328 200.844147,1.093328 
	C200.844147,67.666382 200.844147,134.333145 200.844147,201.000000 
	C167.458054,201.000000 133.979034,201.000000 100.000000,201.000000 
M144.007141,81.029518 
	C144.007141,81.029518 143.944351,81.017250 143.910538,80.407623 
	C143.654541,80.103340 143.398544,79.799057 143.180817,79.189598 
	C143.180817,79.189598 142.938293,79.000435 142.881989,78.334618 
	C141.915695,76.902519 140.949387,75.470421 140.004364,74.002525 
	C140.004364,74.002525 139.964462,74.014229 139.777771,73.348564 
	C134.777664,69.906044 133.035431,70.536949 131.757095,76.049370 
	C131.240341,78.277756 130.342972,80.417877 129.643692,82.627945 
	C129.643692,82.627945 129.626678,82.660454 129.190201,82.965248 
	C129.138016,83.307320 129.085831,83.649391 128.809296,84.243935 
	C128.809296,84.243935 128.844818,84.579788 128.308609,84.973335 
	C127.632523,86.347145 126.956436,87.720955 126.098434,89.067757 
	C126.098434,89.067757 126.088783,89.251404 125.537766,89.473701 
	C124.964493,89.978912 124.391212,90.484131 123.367188,91.483620 
	C124.241158,93.281090 125.115135,95.078560 125.564987,97.053230 
	C125.564987,97.053230 125.105446,97.043823 124.329872,97.000381 
	C122.935555,97.413811 121.541245,97.827248 119.486794,98.436417 
	C122.041145,101.464333 123.958519,103.737183 126.015099,106.665085 
	C125.971504,107.107025 125.927917,107.548965 125.179825,108.007080 
	C124.077003,108.361343 122.974182,108.715607 121.413246,109.100655 
	C121.413246,109.100655 120.995255,108.910667 120.827530,108.596474 
	C120.554504,108.683350 120.281471,108.770226 119.359642,109.006432 
	C118.917694,109.045227 118.475739,109.084030 117.663696,108.568176 
	C116.812492,108.377296 115.961288,108.186409 114.965141,107.167366 
	C115.027298,105.772408 115.089462,104.377441 115.617767,102.554665 
	C115.754417,101.729294 115.891068,100.903923 116.405540,99.447510 
	C115.183220,96.235786 111.406303,95.823219 108.554749,97.594070 
	C108.905502,102.119026 109.557281,105.911140 109.303215,109.641563 
	C109.208572,111.031227 106.996208,112.276649 105.749512,113.587845 
	C104.495522,112.289940 102.254639,111.048332 102.176758,109.683327 
	C101.962547,105.928894 102.655182,102.122726 103.101479,97.061531 
	C100.503616,97.061531 97.151566,96.899467 93.840141,97.194031 
	C93.152321,97.255219 92.615097,99.009331 91.995522,100.803749 
	C91.924179,104.398529 95.066109,108.707626 89.307762,110.779449 
	C89.163727,110.279633 89.019691,109.779816 88.947357,108.355225 
	C88.922745,106.809319 88.898132,105.263412 88.798264,103.022354 
	C87.546494,101.321625 86.294724,99.620895 84.648941,97.459709 
	C84.065880,97.373177 83.482819,97.286636 83.049164,97.046524 
	C83.049164,97.046524 83.039780,96.832474 82.531975,96.368011 
	C81.027611,96.513901 79.523247,96.659790 77.190826,96.972191 
	C75.788773,96.919136 74.386711,96.866074 72.588371,96.382164 
	C71.730728,96.537560 70.873077,96.692947 69.138550,97.171700 
	C65.544678,97.171700 61.950813,97.171700 59.585735,97.171700 
	C60.049023,101.911011 60.817776,105.544868 60.557880,109.103600 
	C60.446823,110.624306 58.190716,111.988350 56.909313,113.423584 
	C55.653744,111.926254 53.434669,110.488495 53.337654,108.919525 
	C53.116928,105.349907 53.938240,101.715858 54.410465,97.433182 
	C52.687061,97.278381 50.469261,96.973763 48.244061,96.903465 
	C44.709911,96.791824 41.850906,96.982788 43.762409,102.134506 
	C44.246300,103.438644 46.619755,108.325409 40.464966,107.296906 
	C36.366055,107.262924 31.664591,105.046951 29.220221,110.906288 
	C28.099180,107.659210 27.136923,104.872032 26.835176,101.732071 
	C28.245279,101.411774 29.655380,101.091469 31.771334,100.880569 
	C33.404747,102.213058 35.038162,103.545540 36.685303,104.889229 
	C42.342857,102.510071 42.593227,100.831429 37.912018,97.028000 
	C37.372761,96.589859 37.167122,95.741112 37.079712,94.380188 
	C39.440811,92.637657 41.801910,90.895126 44.533207,88.879379 
	C40.606438,85.810623 36.764812,82.672211 32.748295,79.776375 
	C31.871288,79.144058 30.161398,78.885109 29.190651,79.295418 
	C24.066362,81.461327 19.055857,83.896431 13.302216,86.564461 
	C18.598715,89.572723 21.827896,93.297073 21.856909,99.741653 
	C19.095051,104.418892 17.674469,109.211876 21.611126,113.903618 
	C25.176455,118.152824 29.821037,118.986084 35.668159,117.283455 
	C36.582577,116.740173 37.496994,116.196892 38.542789,115.533699 
	C38.542789,115.533699 38.661053,115.400841 39.205688,115.084854 
	C39.861401,113.760574 40.517109,112.436295 41.118759,111.090187 
	C41.118759,111.090187 41.154041,111.139320 41.892776,110.968918 
	C43.098351,111.832420 44.683846,112.446579 45.442871,113.603142 
	C48.515556,118.285126 53.114834,118.252350 57.823120,117.986198 
	C62.308605,117.732643 65.114754,115.373840 66.605331,110.600456 
	C66.478889,109.742256 66.352448,108.884048 66.088966,107.278870 
	C66.139244,106.524429 66.189522,105.769989 66.963570,105.012489 
	C67.928604,105.012001 68.893639,105.011513 69.996864,105.893005 
	C69.895973,108.266121 69.795074,110.639244 69.371933,113.177277 
	C69.175751,113.336266 69.053413,113.539673 68.391037,114.166473 
	C66.436905,115.889481 66.941452,117.202400 69.200638,117.880096 
	C70.393150,118.237823 71.733192,118.103775 73.189262,118.481056 
	C73.456696,118.391869 73.724121,118.302681 74.657616,118.074165 
	C75.108063,118.109192 75.558517,118.144226 76.203873,118.467720 
	C76.466324,118.355133 76.728775,118.242554 77.755600,117.896675 
	C79.920135,116.179108 81.998009,116.226501 84.123672,118.867462 
	C85.880783,120.583046 87.859978,122.093498 86.296165,125.144508 
	C85.987930,125.745880 87.300468,128.063782 88.052895,128.162537 
	C90.663094,128.505127 93.355843,128.218872 96.416870,127.864204 
	C96.627327,127.609413 96.837791,127.354622 97.628571,127.141273 
	C98.473778,127.106247 99.318977,127.071213 100.858292,127.010239 
	C102.171791,126.683228 103.485298,126.356216 104.961037,126.686859 
	C105.262352,127.409439 105.563667,128.132019 106.605423,128.852570 
	C107.097992,128.873306 107.590553,128.894043 108.729187,129.037201 
	C109.167007,129.028137 109.604820,129.019073 110.558731,128.897430 
	C111.369118,128.928802 112.179504,128.960175 113.778046,128.992950 
	C114.565712,128.973022 115.353371,128.953094 116.843765,129.005569 
	C117.539474,128.950943 118.235184,128.896317 119.449661,128.809448 
	C119.668091,128.547043 119.886520,128.284637 120.507416,127.782722 
	C120.753960,127.574448 120.920715,127.314896 121.523979,127.213661 
	C122.013573,127.477356 122.503166,127.741051 123.835556,128.037857 
	C124.957565,127.990997 126.079567,127.944138 127.624268,127.974442 
	C127.624268,127.974442 128.005234,128.173141 128.240723,128.468445 
	C128.475754,128.282074 128.710770,128.095688 128.966644,127.949287 
	C128.966644,127.949287 128.925095,127.928810 129.795120,127.968742 
	C131.537018,127.972954 133.278915,127.977165 135.661545,128.027054 
	C136.087112,128.074799 136.512680,128.122528 137.113693,128.803253 
	C138.763580,128.637451 140.413452,128.471664 142.718887,128.158188 
	C143.800461,128.406799 144.882050,128.655411 146.307693,129.396576 
	C146.882431,128.899033 147.457184,128.401505 148.502304,128.017380 
	C148.502304,128.017380 148.985626,127.994888 149.625671,128.017105 
	C150.052078,128.029419 150.478500,128.041733 151.679352,128.187134 
	C152.456711,128.132767 153.234085,128.078384 154.659637,128.239777 
	C154.883682,128.199081 155.107742,128.158371 155.728149,127.913773 
	C155.920227,127.674126 156.030869,127.401436 156.052414,126.923912 
	C156.052414,126.923912 155.944794,126.789787 156.422302,127.016884 
	C156.582993,127.089310 156.743668,127.161743 157.230362,127.793610 
	C158.200623,128.148849 159.170868,128.504074 160.501633,128.948730 
	C160.501633,128.948730 160.864929,128.871414 161.423767,128.655762 
	C161.674957,128.117554 161.926147,127.579346 162.745285,127.369263 
	C164.903641,127.868683 167.061981,128.368103 169.627380,128.706741 
	C169.830582,128.495514 170.011475,128.266663 170.825531,127.945625 
	C172.090469,127.636055 173.355408,127.326477 174.784637,127.509888 
	C174.752579,127.680107 174.720505,127.850319 174.440887,128.295532 
	C174.658966,128.517639 174.877029,128.739761 175.618439,128.890488 
	C175.818863,128.609360 176.019302,128.328232 176.647629,128.027939 
	C176.647629,128.027939 177.070938,127.962395 177.476257,128.000595 
	C177.476257,128.000595 177.880859,128.046005 178.257721,128.688629 
	C179.232727,128.811432 180.207718,128.934235 181.703308,128.883560 
	C182.155502,128.576584 182.607697,128.269608 183.720245,128.295929 
	C185.223953,128.186371 186.727646,128.076813 188.703857,127.536667 
	C189.925232,125.514389 190.455109,123.817657 186.689117,123.482628 
	C186.121323,123.318069 185.553528,123.153511 184.330185,122.715370 
	C179.217972,122.812195 174.105774,122.909019 168.329620,122.998100 
	C167.886551,122.997566 167.443481,122.997040 166.581909,122.443649 
	C164.720520,122.299911 162.859131,122.156181 160.426010,122.022446 
	C160.221298,122.331604 160.016571,122.640762 159.426727,122.977806 
	C159.426727,122.977806 159.043900,123.028282 158.147980,123.005264 
	C155.769608,122.999825 153.391220,122.994385 150.343445,122.990753 
	C149.897324,122.995689 149.451218,123.000626 148.325394,123.007339 
	C147.871887,123.015381 147.418396,123.023422 146.138107,123.030609 
	C144.760574,123.012199 143.383026,122.993790 141.998688,123.002968 
	C141.998688,123.002968 142.025299,122.992737 142.046890,122.478912 
	C142.036560,122.307800 142.026215,122.136688 142.076874,121.288803 
	C143.388702,120.240807 144.700531,119.192810 146.655121,117.897522 
	C147.422195,116.972176 148.189285,116.046822 148.762009,114.615013 
	C148.456635,114.440247 148.151276,114.265488 147.945190,114.058197 
	C147.945190,114.058197 147.894485,114.149544 147.834320,113.681519 
	C147.710739,113.374580 147.499786,113.149559 147.023544,112.112206 
	C147.062027,109.077858 147.100510,106.043503 147.826355,102.860649 
	C148.188385,101.844086 148.550400,100.827515 148.943329,99.118355 
	C147.954651,98.338081 146.965958,97.557808 145.456970,96.313431 
	C144.305435,95.225174 143.153900,94.136917 142.788651,92.896965 
	C144.631866,92.833466 146.475082,92.769966 149.330231,92.881676 
	C150.352325,92.872177 151.374405,92.862679 153.196884,92.764816 
	C156.808167,92.620773 160.419449,92.476730 164.403549,92.708572 
	C164.748459,92.751053 165.093353,92.793533 166.077713,92.709091 
	C166.717102,92.817825 167.356476,92.926559 168.104599,93.698975 
	C169.070129,93.458267 170.035645,93.217567 171.587830,92.724808 
	C173.393478,92.477913 175.199112,92.231026 177.317505,92.476456 
	C177.675247,92.601997 178.033005,92.727547 179.054169,92.863655 
	C179.707626,92.969406 180.361084,93.075165 181.323990,93.576477 
	C181.877945,93.433975 182.431915,93.291481 183.702805,92.923592 
	C184.561981,91.919731 185.421173,90.915863 186.535400,89.381660 
	C185.255127,87.345947 183.974854,85.310226 182.949921,83.079773 
	C182.949921,83.079773 182.721756,83.305748 182.887604,82.377815 
	C182.865891,81.438179 182.844177,80.498550 182.861938,79.013779 
	C182.979752,78.669571 183.097565,78.325363 183.603989,77.675919 
	C183.474091,77.123528 183.344193,76.571144 182.981110,75.462227 
	C182.606506,74.755592 182.231918,74.048958 181.816116,72.505058 
	C180.328003,72.083031 178.839874,71.660995 176.517105,71.401978 
	C167.646072,71.630417 158.775055,71.858856 151.160156,72.054947 
	C151.438766,77.924950 151.837296,82.547699 151.722092,87.157616 
	C151.699722,88.052864 149.675415,88.898079 148.223267,89.113586 
	C146.969742,86.708168 145.716217,84.302750 144.495239,81.539970 
	C144.400696,81.295601 144.225937,81.143036 144.007141,81.029518 
z"/>
<path fill="#85393F" opacity="1.000000" stroke="none" 
	d="
M76.008965,118.179253 
	C75.558517,118.144226 75.108063,118.109192 74.079712,118.076416 
	C73.336739,118.116379 73.171684,118.154076 73.006622,118.191757 
	C71.733192,118.103775 70.393150,118.237823 69.200638,117.880096 
	C66.941452,117.202400 66.436905,115.889481 68.926483,113.997742 
	C69.763451,113.620583 69.840866,113.348366 69.694183,113.012360 
	C69.795074,110.639244 69.895973,108.266121 70.012627,105.037308 
	C69.368019,102.718971 68.707649,101.256325 68.047287,99.793686 
	C67.385841,101.212700 66.699585,102.621147 66.086456,104.060738 
	C65.979561,104.311714 66.180847,104.693939 66.239807,105.015549 
	C66.189522,105.769989 66.139244,106.524429 66.069214,108.015381 
	C66.089096,109.494583 66.128746,110.237274 66.168388,110.979973 
	C65.114754,115.373840 62.308605,117.732643 57.823120,117.986198 
	C53.114834,118.252350 48.515556,118.285126 45.442871,113.603142 
	C44.683846,112.446579 43.098351,111.832420 41.477982,110.655083 
	C41.042381,109.538567 41.021580,108.735893 41.000774,107.933212 
	C46.619755,108.325409 44.246300,103.438644 43.762409,102.134506 
	C41.850906,96.982788 44.709911,96.791824 48.244061,96.903465 
	C50.469261,96.973763 52.687061,97.278381 54.410465,97.433182 
	C53.938240,101.715858 53.116928,105.349907 53.337654,108.919525 
	C53.434669,110.488495 55.653744,111.926254 56.909313,113.423584 
	C58.190716,111.988350 60.446823,110.624306 60.557880,109.103600 
	C60.817776,105.544868 60.049023,101.911011 59.585735,97.171700 
	C61.950813,97.171700 65.544678,97.171700 69.945953,97.074257 
	C71.497131,96.922218 72.240891,96.867615 72.984657,96.813019 
	C74.386711,96.866074 75.788773,96.919136 78.019821,96.953812 
	C80.245796,96.901115 81.642792,96.866798 83.039780,96.832474 
	C83.039780,96.832474 83.049164,97.046524 82.759354,97.354622 
	C81.795158,98.078644 80.537567,98.496979 80.539284,98.910088 
	C80.552223,102.026505 80.908737,105.139984 80.970390,108.258095 
	C81.040421,111.799706 85.167236,115.931267 89.277016,115.598930 
	C87.330566,112.643219 85.564354,109.961197 83.798134,107.279182 
	C84.213074,107.288452 84.628014,107.297722 85.042953,107.306992 
	C85.042953,104.178055 85.042953,101.049110 85.042953,97.920166 
	C86.294724,99.620895 87.546494,101.321625 88.578918,103.584671 
	C87.625931,105.177963 86.892288,106.208939 86.019730,107.435104 
	C87.026436,108.085419 87.951042,108.682709 88.875656,109.279999 
	C89.019691,109.779816 89.163727,110.279633 89.508392,111.335236 
	C90.392014,113.456596 91.074989,115.022186 92.169167,117.530334 
	C89.262222,117.768929 86.621704,117.985657 83.981186,118.202377 
	C81.998009,116.226501 79.920135,116.179108 77.124344,117.955231 
	C76.331711,118.068939 76.170334,118.124100 76.008965,118.179253 
M71.962067,111.054199 
	C71.700745,112.458588 71.439415,113.862976 71.172195,115.299057 
	C76.887711,115.826195 77.983765,111.036774 74.888016,99.878517 
	C70.983040,102.654442 72.288757,106.665154 71.962067,111.054199 
z"/>
<path fill="#FBF0F1" opacity="1.000000" stroke="none" 
	d="
M84.052429,118.534920 
	C86.621704,117.985657 89.262222,117.768929 92.169167,117.530334 
	C91.074989,115.022186 90.392014,113.456596 89.705002,111.508301 
	C95.066109,108.707626 91.924179,104.398529 92.349411,100.570892 
	C92.999260,103.241875 92.979309,106.225250 93.684364,109.026115 
	C94.326950,111.578812 95.087769,114.840042 96.955421,116.216751 
	C104.560150,121.822403 114.160072,117.272202 115.110085,107.995529 
	C115.961288,108.186409 116.812492,108.377296 117.677994,109.136139 
	C114.645882,113.714409 116.424477,115.889320 120.866089,117.451584 
	C123.980118,117.534286 126.763039,117.342590 129.678101,117.179855 
	C129.810257,117.208817 129.987534,117.004440 130.293427,116.980774 
	C131.174667,116.415047 131.750000,115.872978 132.226608,115.315063 
	C132.127884,115.299210 132.326920,115.279823 132.634674,115.031937 
	C133.502625,110.050049 134.062820,105.316040 134.637573,100.527504 
	C134.652100,100.472969 134.758118,100.511658 135.037521,100.405930 
	C136.419571,100.926834 137.522202,101.553467 138.642914,102.164581 
	C138.660995,102.149055 138.646713,102.150429 138.618439,102.587128 
	C138.349091,106.991135 138.108032,110.958450 137.589676,115.041138 
	C137.399216,115.829681 137.486053,116.502846 137.896881,117.459267 
	C140.818024,117.876625 143.415192,118.010719 146.012360,118.144806 
	C144.700531,119.192810 143.388702,120.240807 141.812424,121.731102 
	C141.362854,122.450798 141.177734,122.728195 140.995911,123.003098 
	C140.999222,123.000603 141.005447,122.994545 140.651779,123.037308 
	C138.707870,123.279694 137.117630,123.479317 135.220703,123.717438 
	C135.158463,125.045319 135.089630,126.513344 135.020813,127.981377 
	C133.278915,127.977165 131.537018,127.972954 129.381851,127.599007 
	C128.656616,126.470695 128.344666,125.712120 128.018799,124.979401 
	C128.004913,125.005257 128.063309,124.999176 127.968544,124.653336 
	C126.624870,124.523903 125.375969,124.740311 123.828133,125.138481 
	C123.350388,126.215073 123.171570,127.109909 122.992760,128.004745 
	C122.503166,127.741051 122.013573,127.477356 121.213409,126.778679 
	C119.942848,125.269394 118.982872,124.195091 117.398796,122.422371 
	C117.163750,124.341614 117.070465,125.103348 116.632545,125.898834 
	C116.238960,126.932777 116.190002,127.932983 116.141037,128.933182 
	C115.353371,128.953094 114.565712,128.973022 113.396805,128.606995 
	C113.204514,126.673523 113.393471,125.126022 113.658607,122.954620 
	C112.126381,123.395935 110.986343,123.724289 109.591156,123.882965 
	C108.961624,123.262779 108.587227,122.812256 108.212845,122.361740 
	C107.803535,123.226562 107.394226,124.091385 106.706894,124.998260 
	C106.242439,125.059784 106.056000,125.079254 105.656586,125.063232 
	C105.443619,125.027748 105.012184,125.045952 104.958603,124.699432 
	C103.058670,123.401039 98.046738,123.946510 96.681717,125.182449 
	C96.444893,125.142784 95.971855,125.228668 95.634224,125.266739 
	C95.536789,126.260490 95.776985,127.216187 96.017181,128.171875 
	C93.355843,128.218872 90.663094,128.505127 88.052895,128.162537 
	C87.300468,128.063782 85.987930,125.745880 86.296165,125.144508 
	C87.859978,122.093498 85.880783,120.583046 84.052429,118.534920 
z"/>
<path fill="#87383E" opacity="1.000000" stroke="none" 
	d="
M181.857315,73.342323 
	C182.231918,74.048958 182.606506,74.755592 183.030762,76.065323 
	C183.125412,77.105988 183.170395,77.543571 183.215378,77.981148 
	C183.097565,78.325363 182.979752,78.669571 182.532562,79.479874 
	C180.642776,81.333427 179.896317,82.595253 182.721756,83.305748 
	C182.721756,83.305748 182.949921,83.079773 182.935501,83.518318 
	C184.040833,85.941910 185.160583,87.926956 186.280350,89.912003 
	C185.421173,90.915863 184.561981,91.919731 183.016968,92.970993 
	C181.892273,93.072571 181.453400,93.126740 181.014542,93.180908 
	C180.361084,93.075165 179.707626,92.969406 178.566132,92.615097 
	C177.720322,92.239067 177.362549,92.111595 177.004761,91.984123 
	C175.199112,92.231026 173.393478,92.477913 170.922516,92.767441 
	C169.503433,92.885147 168.749649,92.960220 167.995865,93.035294 
	C167.356476,92.926559 166.717102,92.817825 165.570038,92.585587 
	C164.718491,92.418961 164.374603,92.375824 164.030731,92.332687 
	C160.419449,92.476730 156.808167,92.620773 152.496033,92.549942 
	C150.762619,92.207191 149.730057,92.079323 148.397171,91.894073 
	C148.256073,91.146584 148.415298,90.456474 148.574524,89.766365 
	C149.675415,88.898079 151.699722,88.052864 151.722092,87.157616 
	C151.837296,82.547699 151.438766,77.924950 151.160156,72.054947 
	C158.775055,71.858856 167.646072,71.630417 177.203598,71.567177 
	C179.212494,72.269020 180.534912,72.805672 181.857315,73.342323 
M159.499542,88.598885 
	C158.933578,83.588173 158.367615,78.577461 157.769241,73.279778 
	C155.040176,72.518066 152.738647,72.618889 152.953796,77.053436 
	C153.172623,81.564072 153.002151,86.093605 153.002151,92.016487 
	C155.746109,90.802010 158.004288,89.802536 160.893356,89.045334 
	C161.750916,89.079147 162.992798,89.495628 163.402832,89.083832 
	C165.822006,86.654274 164.950775,76.674225 161.957092,74.036453 
	C158.458115,78.705200 160.477249,83.905609 159.499542,88.598885 
z"/>
<path fill="#41403F" opacity="1.000000" stroke="none" 
	d="
M22.073765,98.931091 
	C21.827896,93.297073 18.598715,89.572723 13.302216,86.564461 
	C19.055857,83.896431 24.066362,81.461327 29.190651,79.295418 
	C30.161398,78.885109 31.871288,79.144058 32.748295,79.776375 
	C36.764812,82.672211 40.606438,85.810623 44.533207,88.879379 
	C41.801910,90.895126 39.440811,92.637657 36.750595,94.723877 
	C36.421478,95.067566 36.038963,95.122131 35.857216,94.837997 
	C31.691668,95.254753 27.707869,95.955643 23.149153,96.757675 
	C23.149050,96.759346 23.080318,97.871162 22.854801,98.987961 
	C22.490969,98.961891 22.282883,98.941269 22.073765,98.931091 
z"/>
<path fill="#85363C" opacity="1.000000" stroke="none" 
	d="
M115.037613,107.581451 
	C114.160072,117.272202 104.560150,121.822403 96.955421,116.216751 
	C95.087769,114.840042 94.326950,111.578812 93.684364,109.026115 
	C92.979309,106.225250 92.999260,103.241875 92.355881,100.160629 
	C92.615097,99.009331 93.152321,97.255219 93.840141,97.194031 
	C97.151566,96.899467 100.503616,97.061531 103.101479,97.061531 
	C102.655182,102.122726 101.962547,105.928894 102.176758,109.683327 
	C102.254639,111.048332 104.495522,112.289940 105.749512,113.587845 
	C106.996208,112.276649 109.208572,111.031227 109.303215,109.641563 
	C109.557281,105.911140 108.905502,102.119026 108.554749,97.594070 
	C111.406303,95.823219 115.183220,96.235786 115.898064,99.888519 
	C115.310928,101.213852 115.231277,102.098167 115.151619,102.982483 
	C115.089462,104.377441 115.027298,105.772408 115.037613,107.581451 
z"/>
<path fill="#883A3E" opacity="1.000000" stroke="none" 
	d="
M21.965336,99.336372 
	C22.282883,98.941269 22.490969,98.961891 22.912975,99.317673 
	C24.143509,100.456543 25.159088,101.270699 26.174667,102.084862 
	C27.136923,104.872032 28.099180,107.659210 29.220221,110.906288 
	C31.664591,105.046951 36.366055,107.262924 40.732872,107.615059 
	C41.021580,108.735893 41.042381,109.538567 41.108612,110.740280 
	C41.154041,111.139320 41.118759,111.090187 40.757103,111.104019 
	C39.817314,112.545509 39.239185,113.973175 38.661057,115.400841 
	C38.661053,115.400841 38.542789,115.533699 38.098831,115.400421 
	C36.771034,115.966110 35.887196,116.665062 35.003357,117.364014 
	C29.821037,118.986084 25.176455,118.152824 21.611126,113.903618 
	C17.674469,109.211876 19.095051,104.418892 21.965336,99.336372 
z"/>
<path fill="#8B373E" opacity="1.000000" stroke="none" 
	d="
M148.398895,89.439972 
	C148.415298,90.456474 148.256073,91.146584 148.289230,92.075958 
	C148.481613,92.315224 148.318298,92.706474 148.318298,92.706474 
	C146.475082,92.769966 144.631866,92.833466 142.033646,92.862366 
	C140.526123,92.835052 139.773605,92.842339 138.920685,92.780052 
	C138.820297,92.710480 138.594193,92.803024 138.405579,92.554825 
	C137.829987,92.161858 137.443024,92.017090 137.044128,91.916275 
	C137.032196,91.960213 137.113586,91.919357 137.101669,91.597145 
	C137.733795,89.724648 139.557709,87.838531 136.021881,87.120132 
	C135.960815,84.832497 136.612869,81.799561 135.678711,81.187447 
	C132.893921,79.362701 131.963242,76.871178 133.599976,74.735718 
	C134.501175,73.559921 137.765533,74.195366 139.964462,74.014229 
	C139.964462,74.014229 140.004364,74.002525 139.999817,74.382385 
	C140.976288,76.174980 141.957291,77.587708 142.938293,79.000435 
	C142.938293,79.000435 143.180817,79.189598 143.189163,79.645248 
	C143.446457,80.406349 143.695404,80.711800 143.944351,81.017250 
	C143.944351,81.017250 144.007141,81.029518 144.034302,81.212357 
	C144.146912,81.601166 144.280670,81.768547 144.462708,81.897339 
	C145.716217,84.302750 146.969742,86.708168 148.398895,89.439972 
z"/>
<path fill="#893239" opacity="1.000000" stroke="none" 
	d="
M129.987534,117.004440 
	C129.987534,117.004440 129.810257,117.208817 129.172897,117.138008 
	C125.868690,117.103867 123.201836,117.140533 120.534988,117.177193 
	C116.424477,115.889320 114.645882,113.714409 117.863037,109.413467 
	C118.475739,109.084030 118.917694,109.045227 119.927048,109.013000 
	C120.661385,108.983269 120.828316,108.946968 120.995255,108.910667 
	C120.995255,108.910667 121.413246,109.100655 121.855499,109.362335 
	C122.849457,110.754784 123.273384,111.983566 124.023811,112.961906 
	C124.278358,113.293747 125.357277,112.993263 126.340973,112.693092 
	C126.451042,108.941063 126.279610,105.477669 126.031418,101.804657 
	C125.954659,101.595039 125.919685,101.149956 125.955887,100.733635 
	C128.375885,96.910614 131.717178,96.984688 134.758118,100.511658 
	C134.758118,100.511658 134.652100,100.472969 134.235260,100.509010 
	C133.321259,105.456642 132.824081,110.368233 132.326920,115.279823 
	C132.326920,115.279823 132.127884,115.299210 131.882172,115.245972 
	C131.086807,115.796638 130.537170,116.400543 129.987534,117.004440 
z"/>
<path fill="#814247" opacity="1.000000" stroke="none" 
	d="
M135.037521,100.405930 
	C131.717178,96.984688 128.375885,96.910614 125.626556,100.594269 
	C125.209167,99.595428 125.157303,98.319626 125.105438,97.043823 
	C125.105446,97.043823 125.564987,97.053230 126.181549,97.005943 
	C127.874268,96.855606 128.950439,96.752556 130.423157,96.728836 
	C132.165558,96.891922 133.511398,96.975670 135.071884,97.290314 
	C136.027985,97.409470 136.769455,97.297729 137.821213,97.193954 
	C138.736343,97.070351 139.341187,96.938797 140.375412,96.852219 
	C142.528961,96.857315 144.253113,96.817429 145.977280,96.777534 
	C146.965958,97.557808 147.954651,98.338081 148.603638,99.580910 
	C147.888977,101.032028 147.513977,102.020592 147.138992,103.009155 
	C147.100510,106.043503 147.062027,109.077858 147.075974,112.819107 
	C147.383759,113.733849 147.639130,113.941696 147.894485,114.149544 
	C147.894485,114.149544 147.945190,114.058197 147.979965,114.333405 
	C148.328613,114.779564 148.642487,114.950516 148.956360,115.121475 
	C148.189285,116.046822 147.422195,116.972176 146.333740,118.021164 
	C143.415192,118.010719 140.818024,117.876625 138.320038,117.403748 
	C140.870087,116.366844 143.320938,115.668724 145.414078,115.072495 
	C145.414078,109.018524 145.414078,103.824860 145.414078,98.349426 
	C142.060211,97.693062 138.799286,96.973038 138.624847,102.180107 
	C137.522202,101.553467 136.419571,100.926834 135.037521,100.405930 
z"/>
<path fill="#892B31" opacity="1.000000" stroke="none" 
	d="
M84.845947,97.689941 
	C85.042953,101.049110 85.042953,104.178055 85.042953,107.306992 
	C84.628014,107.297722 84.213074,107.288452 83.798134,107.279182 
	C85.564354,109.961197 87.330566,112.643219 89.277016,115.598930 
	C85.167236,115.931267 81.040421,111.799706 80.970390,108.258095 
	C80.908737,105.139984 80.552223,102.026505 80.539284,98.910088 
	C80.537567,98.496979 81.795158,98.078644 82.684647,97.431412 
	C83.482819,97.286636 84.065880,97.373177 84.845947,97.689941 
z"/>
<path fill="#873F45" opacity="1.000000" stroke="none" 
	d="
M139.871124,73.681396 
	C137.765533,74.195366 134.501175,73.559921 133.599976,74.735718 
	C131.963242,76.871178 132.893921,79.362701 135.678711,81.187447 
	C136.612869,81.799561 135.960815,84.832497 135.630112,87.193726 
	C134.176498,87.779144 133.126572,87.929756 132.098969,87.738434 
	C135.116196,83.800087 132.586884,83.084717 129.618820,82.598167 
	C130.342972,80.417877 131.240341,78.277756 131.757095,76.049370 
	C133.035431,70.536949 134.777664,69.906044 139.871124,73.681396 
z"/>
<path fill="#2B1F1E" opacity="1.000000" stroke="none" 
	d="
M26.504921,101.908463 
	C25.159088,101.270699 24.143509,100.456543 23.069757,99.312683 
	C23.080318,97.871162 23.149050,96.759346 23.149153,96.757675 
	C27.707869,95.955643 31.691668,95.254753 35.818119,95.190277 
	C34.329006,97.474854 32.697243,99.123009 31.065479,100.771164 
	C29.655380,101.091469 28.245279,101.411774 26.504921,101.908463 
z"/>
<path fill="#7E3C41" opacity="1.000000" stroke="none" 
	d="
M31.418407,100.825867 
	C32.697243,99.123009 34.329006,97.474854 35.999866,95.474411 
	C36.038963,95.122131 36.421478,95.067566 36.614143,95.075150 
	C37.167122,95.741112 37.372761,96.589859 37.912018,97.028000 
	C42.593227,100.831429 42.342857,102.510071 36.685303,104.889229 
	C35.038162,103.545540 33.404747,102.213058 31.418407,100.825867 
z"/>
<path fill="#FBF0F1" opacity="1.000000" stroke="none" 
	d="
M168.993561,123.005844 
	C174.105774,122.909019 179.217972,122.812195 184.504333,123.099548 
	C184.128326,124.006378 183.578171,124.529015 183.016190,125.043510 
	C183.004364,125.035362 183.024734,125.032951 182.797760,125.016876 
	C182.570770,125.000809 182.115799,124.990173 181.920929,124.678452 
	C180.435211,124.561623 179.144379,124.756516 177.666641,124.970741 
	C177.479752,124.990074 177.109314,125.053101 176.801788,125.037430 
	C176.289978,125.032272 176.085693,125.042786 175.557007,125.115662 
	C175.028534,125.790993 174.824432,126.403954 174.620346,127.016907 
	C173.355408,127.326477 172.090469,127.636055 170.447845,127.612030 
	C169.711395,126.485924 169.352646,125.693413 168.995514,124.584763 
	C168.995941,123.847694 168.994751,123.426773 168.993561,123.005844 
z"/>
<path fill="#FBF0F1" opacity="1.000000" stroke="none" 
	d="
M160.997742,122.012451 
	C162.859131,122.156181 164.720520,122.299911 166.789032,123.103889 
	C167.010178,124.532028 167.024216,125.299919 167.114212,126.380440 
	C167.866898,127.417885 168.543625,128.142700 169.220337,128.867523 
	C167.061981,128.368103 164.903641,127.868683 162.417938,126.874527 
	C161.819382,125.572937 161.548187,124.766083 161.218323,123.636444 
	C161.105682,122.879921 161.051712,122.446190 160.997742,122.012451 
z"/>
<path fill="#8B373E" opacity="1.000000" stroke="none" 
	d="
M129.631256,82.613052 
	C132.586884,83.084717 135.116196,83.800087 132.083755,87.713799 
	C132.046234,88.031105 132.103912,88.031799 131.820007,88.221085 
	C131.348618,89.751808 131.161118,91.093239 130.744629,92.603958 
	C130.344116,92.854660 130.172607,92.936066 129.633179,92.929337 
	C127.834763,92.566872 126.404236,92.292519 125.230438,91.837746 
	C125.687706,90.855354 125.888245,90.053375 126.088783,89.251404 
	C126.088783,89.251404 126.098434,89.067757 126.540703,88.991943 
	C127.603584,87.470680 128.224197,86.025230 128.844818,84.579788 
	C128.844818,84.579788 128.809296,84.243935 129.139282,83.961319 
	C129.521744,83.339287 129.574203,82.999870 129.626678,82.660454 
	C129.626678,82.660454 129.643692,82.627945 129.631256,82.613052 
z"/>
<path fill="#FBF0F1" opacity="1.000000" stroke="none" 
	d="
M124.717651,97.022102 
	C125.157303,98.319626 125.209167,99.595428 125.590363,101.010590 
	C125.919685,101.149956 125.954659,101.595039 125.969727,102.201897 
	C125.948494,103.875847 125.912193,104.942940 125.875900,106.010033 
	C123.958519,103.737183 122.041145,101.464333 119.486794,98.436417 
	C121.541245,97.827248 122.935555,97.413811 124.717651,97.022102 
z"/>
<path fill="#F4D7DE" opacity="1.000000" stroke="none" 
	d="
M135.341187,128.004211 
	C135.089630,126.513344 135.158463,125.045319 135.220703,123.717438 
	C137.117630,123.479317 138.707870,123.279694 140.641647,123.405090 
	C139.636200,125.210159 138.287231,126.690216 136.938248,128.170273 
	C136.512680,128.122528 136.087112,128.074799 135.341187,128.004211 
z"/>
<path fill="#F4D7DE" opacity="1.000000" stroke="none" 
	d="
M96.918533,125.222115 
	C98.046738,123.946510 103.058670,123.401039 104.919464,124.948318 
	C104.888878,125.705566 104.843834,125.867386 104.798798,126.029205 
	C103.485298,126.356216 102.171791,126.683228 100.322647,126.708771 
	C98.854858,126.277344 97.922699,126.147385 96.993637,126.008270 
	C96.996735,125.999107 96.979736,126.009705 96.954102,125.813614 
	C96.928467,125.617516 96.918533,125.222115 96.918533,125.222115 
z"/>
<path fill="#FBF0F1" opacity="1.000000" stroke="none" 
	d="
M137.025970,128.486755 
	C138.287231,126.690216 139.636200,125.210159 140.995316,123.362320 
	C141.005447,122.994545 140.999222,123.000603 141.254242,123.009201 
	C141.681290,123.009453 141.853302,123.001091 142.025299,122.992737 
	C142.025299,122.992737 141.998688,123.002968 142.048340,123.310150 
	C142.859116,124.556938 143.620255,125.496536 144.245667,126.268600 
	C143.407043,127.051483 142.735184,127.678673 142.063339,128.305862 
	C140.413452,128.471664 138.763580,128.637451 137.025970,128.486755 
z"/>
<path fill="#FBF0F1" opacity="1.000000" stroke="none" 
	d="
M124.973709,92.018166 
	C126.404236,92.292519 127.834763,92.566872 129.631500,93.292610 
	C130.007339,94.712502 130.016968,95.681007 130.026596,96.649506 
	C128.950439,96.752556 127.874268,96.855606 126.393600,96.917343 
	C125.115135,95.078560 124.241158,93.281090 123.706390,91.494232 
	C124.354958,91.675957 124.664337,91.847061 124.973709,92.018166 
z"/>
<path fill="#F4D7DE" opacity="1.000000" stroke="none" 
	d="
M109.846298,124.052643 
	C110.986343,123.724289 112.126381,123.395935 113.658607,122.954620 
	C113.393471,125.126022 113.204514,126.673523 113.002724,128.606293 
	C112.179504,128.960175 111.369118,128.928802 110.268410,128.607910 
	C109.934158,126.896477 109.890228,125.474556 109.846298,124.052643 
z"/>
<path fill="#FBF0F1" opacity="1.000000" stroke="none" 
	d="
M66.601685,105.014023 
	C66.180847,104.693939 65.979561,104.311714 66.086456,104.060738 
	C66.699585,102.621147 67.385841,101.212700 68.047287,99.793686 
	C68.707649,101.256325 69.368019,102.718971 69.943527,104.596313 
	C68.893639,105.011513 67.928604,105.012001 66.601685,105.014023 
z"/>
<path fill="#F4D7DE" opacity="1.000000" stroke="none" 
	d="
M142.391113,128.232025 
	C142.735184,127.678673 143.407043,127.051483 144.245667,126.268600 
	C143.620255,125.496536 142.859116,124.556938 142.051743,123.296356 
	C143.383026,122.993790 144.760574,123.012199 146.553619,123.409058 
	C146.633972,125.493019 146.298798,127.198517 145.963623,128.904022 
	C144.882050,128.655411 143.800461,128.406799 142.391113,128.232025 
z"/>
<path fill="#FBF0F1" opacity="1.000000" stroke="none" 
	d="
M126.059479,112.981735 
	C125.357277,112.993263 124.278358,113.293747 124.023811,112.961906 
	C123.273384,111.983566 122.849457,110.754784 122.084557,109.346939 
	C122.974182,108.715607 124.077003,108.361343 125.618439,108.407913 
	C126.057861,110.199745 126.058670,111.590736 126.059479,112.981735 
z"/>
<path fill="#FBF0F1" opacity="1.000000" stroke="none" 
	d="
M145.717133,96.545486 
	C144.253113,96.817429 142.528961,96.857315 140.226013,96.541946 
	C139.438522,95.074341 139.229813,93.961983 139.021088,92.849625 
	C139.773605,92.842339 140.526123,92.835052 141.640503,92.938217 
	C143.153900,94.136917 144.305435,95.225174 145.717133,96.545486 
z"/>
<path fill="#9A5D69" opacity="1.000000" stroke="none" 
	d="
M188.231354,127.967270 
	C186.727646,128.076813 185.223953,128.186371 183.355408,127.763916 
	C183.001968,126.498917 183.013351,125.765938 183.024734,125.032951 
	C183.024734,125.032951 183.004364,125.035362 183.373718,125.017921 
	C184.849442,125.214554 185.955841,125.428627 187.362518,125.820206 
	C187.852341,126.654236 188.041855,127.310753 188.231354,127.967270 
M185.792664,127.198486 
	C185.794769,127.373718 185.765671,127.559525 185.819138,127.717369 
	C185.834076,127.761429 186.092850,127.722893 186.239746,127.722244 
	C186.237946,127.546432 186.236145,127.370628 185.792664,127.198486 
z"/>
<path fill="#F4D7DE" opacity="1.000000" stroke="none" 
	d="
M123.414154,128.021301 
	C123.171570,127.109909 123.350388,126.215073 124.230667,125.165894 
	C125.975853,125.007423 127.019577,125.003296 128.063309,124.999176 
	C128.063309,124.999176 128.004913,125.005257 127.732208,125.156387 
	C127.373528,126.170776 127.287552,127.034027 127.201576,127.897285 
	C126.079567,127.944138 124.957565,127.990997 123.414154,128.021301 
z"/>
<path fill="#FBF0F1" opacity="1.000000" stroke="none" 
	d="
M146.135651,129.150299 
	C146.298798,127.198517 146.633972,125.493019 146.967010,123.409485 
	C147.418396,123.023422 147.871887,123.015381 148.663544,123.346878 
	C148.996246,124.141075 148.990768,124.595718 148.651367,125.127739 
	C148.222275,126.104729 148.127106,127.004349 148.031921,127.903969 
	C147.457184,128.401505 146.882431,128.899033 146.135651,129.150299 
z"/>
<path fill="#FBF0F1" opacity="1.000000" stroke="none" 
	d="
M186.407867,89.646835 
	C185.160583,87.926956 184.040833,85.941910 182.807831,83.615692 
	C183.974854,85.310226 185.255127,87.345947 186.407867,89.646835 
z"/>
<path fill="#F2E2E4" opacity="1.000000" stroke="none" 
	d="
M182.797760,125.016876 
	C183.013351,125.765938 183.001968,126.498917 183.025238,127.597267 
	C182.607697,128.269608 182.155502,128.576584 181.524719,128.600357 
	C180.631042,128.167969 179.915955,128.018784 179.117828,127.526413 
	C179.065140,126.483757 179.095535,125.784294 179.408829,125.047256 
	C180.499756,125.003189 181.307770,124.996681 182.115799,124.990173 
	C182.115799,124.990173 182.570770,125.000809 182.797760,125.016876 
z"/>
<path fill="#F2E2E4" opacity="1.000000" stroke="none" 
	d="
M148.985306,125.050369 
	C148.990768,124.595718 148.996246,124.141075 149.003403,123.345993 
	C149.451218,123.000626 149.897324,122.995689 150.678070,123.301437 
	C151.007034,124.027237 151.001389,124.442352 151.080704,125.124924 
	C151.078751,126.279594 150.991821,127.166817 150.904907,128.054047 
	C150.478500,128.041733 150.052078,128.029419 149.357361,127.638718 
	C149.054489,126.523682 149.019897,125.787025 148.985306,125.050369 
z"/>
<path fill="#F3B5C5" opacity="1.000000" stroke="none" 
	d="
M159.043900,123.028282 
	C159.043900,123.028282 159.426727,122.977806 159.717804,123.377579 
	C160.052948,125.471336 160.097031,127.165329 160.141129,128.859314 
	C159.170868,128.504074 158.200623,128.148849 157.349060,127.424728 
	C157.606339,126.070389 157.744904,125.084930 158.137268,123.992767 
	C158.608673,123.600136 158.826279,123.314209 159.043900,123.028282 
z"/>
<path fill="#FBF0F1" opacity="1.000000" stroke="none" 
	d="
M158.595947,123.016769 
	C158.826279,123.314209 158.608673,123.600136 157.773285,123.918137 
	C156.056030,124.306442 154.956543,124.662674 153.500824,124.974380 
	C152.428314,124.905739 151.712036,124.881607 150.995743,124.857475 
	C151.001389,124.442352 151.007034,124.027237 151.012756,123.300529 
	C153.391220,122.994385 155.769608,122.999825 158.595947,123.016769 
z"/>
<path fill="#814247" opacity="1.000000" stroke="none" 
	d="
M126.340973,112.693100 
	C126.058670,111.590736 126.057861,110.199745 125.970688,108.399826 
	C125.927917,107.548965 125.971504,107.107025 125.945496,106.337555 
	C125.912193,104.942940 125.948494,103.875847 126.046486,102.411514 
	C126.279610,105.477669 126.451042,108.941063 126.340973,112.693100 
z"/>
<path fill="#7E3C41" opacity="1.000000" stroke="none" 
	d="
M109.591156,123.882965 
	C109.890228,125.474556 109.934158,126.896477 110.010361,128.664200 
	C109.604820,129.019073 109.167007,129.028137 108.343178,128.626373 
	C107.633087,127.129112 107.308998,126.042656 106.984909,124.956207 
	C107.394226,124.091385 107.803535,123.226562 108.212845,122.361740 
	C108.587227,122.812256 108.961624,123.262779 109.591156,123.882965 
z"/>
<path fill="#F4D7DE" opacity="1.000000" stroke="none" 
	d="
M116.977173,125.865082 
	C117.070465,125.103348 117.163750,124.341614 117.398796,122.422371 
	C118.982872,124.195091 119.942848,125.269394 120.955261,126.673889 
	C120.920715,127.314896 120.753960,127.574448 120.240189,127.547554 
	C119.289604,126.925255 118.606247,126.538116 117.679962,126.100998 
	C117.437035,126.051010 116.977173,125.865082 116.977173,125.865082 
z"/>
<path fill="#873F45" opacity="1.000000" stroke="none" 
	d="
M142.910141,78.667526 
	C141.957291,77.587708 140.976288,76.174980 139.989182,74.400284 
	C140.949387,75.470421 141.915695,76.902519 142.910141,78.667526 
z"/>
<path fill="#FBF0F1" opacity="1.000000" stroke="none" 
	d="
M88.911499,108.817612 
	C87.951042,108.682709 87.026436,108.085419 86.019730,107.435104 
	C86.892288,106.208939 87.625931,105.177963 88.616547,103.932251 
	C88.898132,105.263412 88.922745,106.809319 88.911499,108.817612 
z"/>
<path fill="#814247" opacity="1.000000" stroke="none" 
	d="
M153.857040,125.018898 
	C154.956543,124.662674 156.056030,124.306442 157.519501,124.024841 
	C157.744904,125.084930 157.606339,126.070389 157.186066,127.145020 
	C156.743668,127.161743 156.582993,127.089310 156.184540,126.701035 
	C155.411469,125.912430 154.876160,125.439667 154.219330,124.974625 
	C154.097809,124.982353 153.857040,125.018898 153.857040,125.018898 
z"/>
<path fill="#873F45" opacity="1.000000" stroke="none" 
	d="
M116.632545,125.898834 
	C116.977173,125.865082 117.437035,126.051010 117.544098,126.336807 
	C118.077744,127.362289 118.504318,128.101990 118.930893,128.841690 
	C118.235184,128.896317 117.539474,128.950943 116.492401,128.969376 
	C116.190002,127.932983 116.238960,126.932777 116.632545,125.898834 
z"/>
<path fill="#85393F" opacity="1.000000" stroke="none" 
	d="
M38.933372,115.242844 
	C39.239185,113.973175 39.817314,112.545509 40.784130,111.114929 
	C40.517109,112.436295 39.861401,113.760574 38.933372,115.242844 
z"/>
<path fill="#F3B5C5" opacity="1.000000" stroke="none" 
	d="
M106.706894,124.998260 
	C107.308998,126.042656 107.633087,127.129112 108.020142,128.565170 
	C107.590553,128.894043 107.097992,128.873306 106.264061,128.479736 
	C105.904984,127.104164 105.887268,126.101448 105.869553,125.098724 
	C106.056000,125.079254 106.242439,125.059784 106.706894,124.998260 
z"/>
<path fill="#FBF0F1" opacity="1.000000" stroke="none" 
	d="
M188.467606,127.751968 
	C188.041855,127.310753 187.852341,126.654236 187.353363,125.543686 
	C187.039490,124.720612 187.035080,124.351570 187.030655,123.982529 
	C190.455109,123.817657 189.925232,125.514389 188.467606,127.751968 
z"/>
<path fill="#F4D7DE" opacity="1.000000" stroke="none" 
	d="
M186.859894,123.732574 
	C187.035080,124.351570 187.039490,124.720612 187.053070,125.366180 
	C185.955841,125.428627 184.849442,125.214554 183.385529,125.026070 
	C183.578171,124.529015 184.128326,124.006378 184.832108,123.236343 
	C185.553528,123.153511 186.121323,123.318069 186.859894,123.732574 
z"/>
<path fill="#873F45" opacity="1.000000" stroke="none" 
	d="
M128.576721,84.776566 
	C128.224197,86.025230 127.603584,87.470680 126.631660,89.005447 
	C126.956436,87.720955 127.632523,86.347145 128.576721,84.776566 
z"/>
<path fill="#F3B5C5" opacity="1.000000" stroke="none" 
	d="
M151.080704,125.124924 
	C151.712036,124.881607 152.428314,124.905739 153.500824,124.974380 
	C153.857040,125.018898 154.097809,124.982353 154.072556,125.337334 
	C154.035339,126.469551 154.023392,127.246780 154.011444,128.024017 
	C153.234085,128.078384 152.456711,128.132767 151.292114,128.120590 
	C150.991821,127.166817 151.078751,126.279594 151.080704,125.124924 
z"/>
<path fill="#5E202E" opacity="1.000000" stroke="none" 
	d="
M160.321381,128.904022 
	C160.097031,127.165329 160.052948,125.471336 159.910355,123.363632 
	C160.016571,122.640762 160.221298,122.331604 160.711884,122.017448 
	C161.051712,122.446190 161.105682,122.879921 161.109695,124.036079 
	C160.994797,126.129471 160.929871,127.500443 160.864929,128.871414 
	C160.864929,128.871414 160.501633,128.948730 160.321381,128.904022 
z"/>
<path fill="#5E202E" opacity="1.000000" stroke="none" 
	d="
M154.335541,128.131897 
	C154.023392,127.246780 154.035339,126.469551 154.194077,125.329605 
	C154.876160,125.439667 155.411469,125.912430 155.945801,126.587494 
	C155.944794,126.789787 156.052414,126.923912 155.763260,126.994164 
	C155.426666,127.415504 155.379227,127.766586 155.331787,128.117676 
	C155.107742,128.158371 154.883682,128.199081 154.335541,128.131897 
z"/>
<path fill="#FBF0F1" opacity="1.000000" stroke="none" 
	d="
M168.050232,93.367134 
	C168.749649,92.960220 169.503433,92.885147 170.629196,92.893463 
	C170.035645,93.217567 169.070129,93.458267 168.050232,93.367134 
z"/>
<path fill="#F4D7DE" opacity="1.000000" stroke="none" 
	d="
M167.038239,126.067818 
	C167.024216,125.299919 167.010178,124.532028 166.998276,123.380318 
	C167.443481,122.997040 167.886551,122.997566 168.661591,123.001976 
	C168.994751,123.426773 168.995941,123.847694 168.840622,124.844589 
	C168.135483,125.636322 167.586868,125.852066 167.038239,126.067818 
z"/>
<path fill="#9A5D69" opacity="1.000000" stroke="none" 
	d="
M167.114212,126.380440 
	C167.586868,125.852066 168.135483,125.636322 168.839005,125.160736 
	C169.352646,125.693413 169.711395,126.485924 170.120087,127.649292 
	C170.011475,128.266663 169.830582,128.495514 169.423859,128.787140 
	C168.543625,128.142700 167.866898,127.417885 167.114212,126.380440 
z"/>
<path fill="#9A5D69" opacity="1.000000" stroke="none" 
	d="
M179.125931,125.084824 
	C179.095535,125.784294 179.065140,126.483757 178.787247,127.566391 
	C178.320114,127.981697 178.100479,128.013855 177.880859,128.046005 
	C177.880859,128.046005 177.476257,128.000595 177.239777,127.617813 
	C177.038651,126.507729 177.073975,125.780411 177.109314,125.053101 
	C177.109314,125.053101 177.479752,124.990074 177.983307,125.017273 
	C178.699890,125.057915 178.912903,125.071373 179.125931,125.084824 
z"/>
<path fill="#9A5D69" opacity="1.000000" stroke="none" 
	d="
M119.190277,128.825562 
	C118.504318,128.101990 118.077744,127.362289 117.787018,126.386795 
	C118.606247,126.538116 119.289604,126.925255 120.038956,127.667313 
	C119.886520,128.284637 119.668091,128.547043 119.190277,128.825562 
z"/>
<path fill="#FBF0F1" opacity="1.000000" stroke="none" 
	d="
M181.836716,72.923691 
	C180.534912,72.805672 179.212494,72.269020 177.620926,71.485672 
	C178.839874,71.660995 180.328003,72.083031 181.836716,72.923691 
z"/>
<path fill="#85393F" opacity="1.000000" stroke="none" 
	d="
M35.335762,117.323730 
	C35.887196,116.665062 36.771034,115.966110 38.033142,115.460381 
	C37.496994,116.196892 36.582577,116.740173 35.335762,117.323730 
z"/>
<path fill="#FBF0F1" opacity="1.000000" stroke="none" 
	d="
M182.804688,82.841782 
	C179.896317,82.595253 180.642776,81.333427 182.512817,79.752441 
	C182.844177,80.498550 182.865891,81.438179 182.804688,82.841782 
z"/>
<path fill="#9A5D69" opacity="1.000000" stroke="none" 
	d="
M96.990547,126.017433 
	C97.922699,126.147385 98.854858,126.277344 99.975601,126.721741 
	C99.318977,127.071213 98.473778,127.106247 97.319107,126.850182 
	C97.003281,126.378540 96.996918,126.197983 96.990547,126.017433 
z"/>
<path fill="#7E3C41" opacity="1.000000" stroke="none" 
	d="
M96.993637,126.008270 
	C96.996918,126.197983 97.003281,126.378540 97.028946,126.829460 
	C96.837791,127.354622 96.627327,127.609413 96.217026,128.018036 
	C95.776985,127.216187 95.536789,126.260490 95.739716,125.467178 
	C96.390419,125.877960 96.656052,126.004677 96.979736,126.009705 
	C96.979736,126.009705 96.996735,125.999107 96.993637,126.008270 
z"/>
<path fill="#F3B5C5" opacity="1.000000" stroke="none" 
	d="
M161.144348,128.763580 
	C160.929871,127.500443 160.994797,126.129471 161.168365,124.358871 
	C161.548187,124.766083 161.819382,125.572937 162.133942,126.710464 
	C161.926147,127.579346 161.674957,128.117554 161.144348,128.763580 
z"/>
<path fill="#873F45" opacity="1.000000" stroke="none" 
	d="
M125.230438,91.837746 
	C124.664337,91.847061 124.354958,91.675957 123.931763,91.247093 
	C124.391212,90.484131 124.964493,89.978912 125.813278,89.362549 
	C125.888245,90.053375 125.687706,90.855354 125.230438,91.837746 
z"/>
<path fill="#FBF0F1" opacity="1.000000" stroke="none" 
	d="
M82.785873,96.600243 
	C81.642792,96.866798 80.245796,96.901115 78.433846,96.870560 
	C79.523247,96.659790 81.027611,96.513901 82.785873,96.600243 
z"/>
<path fill="#FBF0F1" opacity="1.000000" stroke="none" 
	d="
M147.482666,102.934906 
	C147.513977,102.020592 147.888977,101.032028 148.588196,99.927200 
	C148.550400,100.827515 148.188385,101.844086 147.482666,102.934906 
z"/>
<path fill="#5E202E" opacity="1.000000" stroke="none" 
	d="
M174.702484,127.263397 
	C174.824432,126.403954 175.028534,125.790993 175.618439,125.487961 
	C176.076065,126.547623 176.147903,127.297363 176.219727,128.047104 
	C176.019302,128.328232 175.818863,128.609360 175.275787,128.681931 
	C174.851578,128.322433 174.770004,128.171494 174.688431,128.020538 
	C174.720505,127.850319 174.752579,127.680107 174.702484,127.263397 
z"/>
<path fill="#814247" opacity="1.000000" stroke="none" 
	d="
M127.412918,127.935867 
	C127.287552,127.034027 127.373528,126.170776 127.746101,125.130531 
	C128.344666,125.712120 128.656616,126.470695 128.946838,127.579041 
	C128.925095,127.928810 128.966644,127.949287 128.718811,127.987137 
	C128.470978,128.024994 128.005234,128.173141 128.005234,128.173141 
	C128.005234,128.173141 127.624268,127.974442 127.412918,127.935867 
z"/>
<path fill="#5E202E" opacity="1.000000" stroke="none" 
	d="
M105.656586,125.063232 
	C105.887268,126.101448 105.904984,127.104164 105.893837,128.480743 
	C105.563667,128.132019 105.262352,127.409439 104.879913,126.358032 
	C104.843834,125.867386 104.888878,125.705566 104.973053,125.294846 
	C105.012184,125.045952 105.443619,125.027748 105.656586,125.063232 
z"/>
<path fill="#5E202E" opacity="1.000000" stroke="none" 
	d="
M148.651367,125.127739 
	C149.019897,125.787025 149.054489,126.523682 149.037354,127.627609 
	C148.985626,127.994888 148.502304,128.017380 148.267120,127.960678 
	C148.127106,127.004349 148.222275,126.104729 148.651367,125.127739 
z"/>
<path fill="#814247" opacity="1.000000" stroke="none" 
	d="
M178.069290,128.367310 
	C178.100479,128.013855 178.320114,127.981697 178.870300,127.909576 
	C179.915955,128.018784 180.631042,128.167969 181.264420,128.687088 
	C180.207718,128.934235 179.232727,128.811432 178.069290,128.367310 
z"/>
<path fill="#F4D7DE" opacity="1.000000" stroke="none" 
	d="
M176.433685,128.037521 
	C176.147903,127.297363 176.076065,126.547623 175.942810,125.425583 
	C176.085693,125.042786 176.289978,125.032272 176.801788,125.037430 
	C177.073975,125.780411 177.038651,126.507729 177.037125,127.598717 
	C177.070938,127.962395 176.647629,128.027939 176.433685,128.037521 
z"/>
<path fill="#FBF0F1" opacity="1.000000" stroke="none" 
	d="
M66.386856,110.790215 
	C66.128746,110.237274 66.089096,109.494583 66.137726,108.388870 
	C66.352448,108.884048 66.478889,109.742256 66.386856,110.790215 
z"/>
<path fill="#FBF0F1" opacity="1.000000" stroke="none" 
	d="
M72.786514,96.597595 
	C72.240891,96.867615 71.497131,96.922218 70.384399,96.912575 
	C70.873077,96.692947 71.730728,96.537560 72.786514,96.597595 
z"/>
<path fill="#FBF0F1" opacity="1.000000" stroke="none" 
	d="
M148.824265,92.794075 
	C148.318298,92.706474 148.481613,92.315224 148.589554,92.133339 
	C149.730057,92.079323 150.762619,92.207191 152.095840,92.594124 
	C151.374405,92.862679 150.352325,92.872177 148.824265,92.794075 
z"/>
<path fill="#FBF0F1" opacity="1.000000" stroke="none" 
	d="
M115.384689,102.768570 
	C115.231277,102.098167 115.310928,101.213852 115.709152,100.204041 
	C115.891068,100.903923 115.754417,101.729294 115.384689,102.768570 
z"/>
<path fill="#FBF0F1" opacity="1.000000" stroke="none" 
	d="
M181.169266,93.378693 
	C181.453400,93.126740 181.892273,93.072571 182.658508,93.083694 
	C182.431915,93.291481 181.877945,93.433975 181.169266,93.378693 
z"/>
<path fill="#FBF0F1" opacity="1.000000" stroke="none" 
	d="
M183.409683,77.828537 
	C183.170395,77.543571 183.125412,77.105988 183.147354,76.343582 
	C183.344193,76.571144 183.474091,77.123528 183.409683,77.828537 
z"/>
<path fill="#FBF0F1" opacity="1.000000" stroke="none" 
	d="
M69.533058,113.094818 
	C69.840866,113.348366 69.763451,113.620583 69.233414,113.808258 
	C69.053413,113.539673 69.175751,113.336266 69.533058,113.094818 
z"/>
<path fill="#FBF0F1" opacity="1.000000" stroke="none" 
	d="
M177.161133,92.230286 
	C177.362549,92.111595 177.720322,92.239067 178.234436,92.609818 
	C178.033005,92.727547 177.675247,92.601997 177.161133,92.230286 
z"/>
<path fill="#FBF0F1" opacity="1.000000" stroke="none" 
	d="
M174.564667,128.158035 
	C174.770004,128.171494 174.851578,128.322433 175.014114,128.717621 
	C174.877029,128.739761 174.658966,128.517639 174.564667,128.158035 
z"/>
<path fill="#FBF0F1" opacity="1.000000" stroke="none" 
	d="
M128.122986,128.320801 
	C128.005234,128.173141 128.470978,128.024994 128.708389,127.967155 
	C128.710770,128.095688 128.475754,128.282074 128.122986,128.320801 
z"/>
<path fill="#FBF0F1" opacity="1.000000" stroke="none" 
	d="
M164.217133,92.520630 
	C164.374603,92.375824 164.718491,92.418961 165.250305,92.649048 
	C165.093353,92.793533 164.748459,92.751053 164.217133,92.520630 
z"/>
<path fill="#F3B5C5" opacity="1.000000" stroke="none" 
	d="
M155.529968,128.015717 
	C155.379227,127.766586 155.426666,127.415504 155.767090,127.080055 
	C156.030869,127.401436 155.920227,127.674126 155.529968,128.015717 
z"/>
<path fill="#FBF0F1" opacity="1.000000" stroke="none" 
	d="
M147.864410,113.915527 
	C147.639130,113.941696 147.383759,113.733849 147.164917,113.266228 
	C147.499786,113.149559 147.710739,113.374580 147.864410,113.915527 
z"/>
<path fill="#FBF0F1" opacity="1.000000" stroke="none" 
	d="
M73.097946,118.336411 
	C73.171684,118.154076 73.336739,118.116379 73.746674,118.146088 
	C73.724121,118.302681 73.456696,118.391869 73.097946,118.336411 
z"/>
<path fill="#873F45" opacity="1.000000" stroke="none" 
	d="
M143.927444,80.712433 
	C143.695404,80.711800 143.446457,80.406349 143.170029,79.797836 
	C143.398544,79.799057 143.654541,80.103340 143.927444,80.712433 
z"/>
<path fill="#FBF0F1" opacity="1.000000" stroke="none" 
	d="
M76.106415,118.323486 
	C76.170334,118.124100 76.331711,118.068939 76.742157,118.071877 
	C76.728775,118.242554 76.466324,118.355133 76.106415,118.323486 
z"/>
<path fill="#FBF0F1" opacity="1.000000" stroke="none" 
	d="
M120.911392,108.753571 
	C120.828316,108.946968 120.661385,108.983269 120.251450,108.938339 
	C120.281471,108.770226 120.554504,108.683350 120.911392,108.753571 
z"/>
<path fill="#F4D7DE" opacity="1.000000" stroke="none" 
	d="
M142.036102,122.735825 
	C141.853302,123.001091 141.681290,123.009453 141.250946,123.011703 
	C141.177734,122.728195 141.362854,122.450798 141.781921,122.069489 
	C142.026215,122.136688 142.036560,122.307800 142.036102,122.735825 
z"/>
<path fill="#873F45" opacity="1.000000" stroke="none" 
	d="
M144.478973,81.718658 
	C144.280670,81.768547 144.146912,81.601166 144.016205,81.238739 
	C144.225937,81.143036 144.400696,81.295601 144.478973,81.718658 
z"/>
<path fill="#873F45" opacity="1.000000" stroke="none" 
	d="
M129.408432,82.812851 
	C129.574203,82.999870 129.521744,83.339287 129.251450,83.835083 
	C129.085831,83.649391 129.138016,83.307320 129.408432,82.812851 
z"/>
<path fill="#FBF0F1" opacity="1.000000" stroke="none" 
	d="
M148.859192,114.868240 
	C148.642487,114.950516 148.328613,114.779564 147.930328,114.349670 
	C148.151276,114.265488 148.456635,114.440247 148.859192,114.868240 
z"/>
<path fill="#892B31" opacity="1.000000" stroke="none" 
	d="
M71.973648,110.621635 
	C72.288757,106.665154 70.983040,102.654442 74.888016,99.878517 
	C77.983765,111.036774 76.887711,115.826195 71.172195,115.299057 
	C71.439415,113.862976 71.700745,112.458588 71.973648,110.621635 
z"/>
<path fill="#892B31" opacity="1.000000" stroke="none" 
	d="
M138.642914,102.164581 
	C138.799286,96.973038 142.060211,97.693062 145.414078,98.349426 
	C145.414078,103.824860 145.414078,109.018524 145.414078,115.072495 
	C143.320938,115.668724 140.870087,116.366844 137.996063,117.120483 
	C137.486053,116.502846 137.399216,115.829681 137.993179,114.986687 
	C138.664886,110.594711 138.655792,106.372566 138.646713,102.150429 
	C138.646713,102.150429 138.660995,102.149055 138.642914,102.164581 
z"/>
<path fill="#814247" opacity="1.000000" stroke="none" 
	d="
M132.634674,115.031937 
	C132.824081,110.368233 133.321259,105.456642 134.220734,100.563545 
	C134.062820,105.316040 133.502625,110.050049 132.634674,115.031937 
z"/>
<path fill="#814247" opacity="1.000000" stroke="none" 
	d="
M138.618439,102.587128 
	C138.655792,106.372566 138.664886,110.594711 138.270477,114.871307 
	C138.108032,110.958450 138.349091,106.991135 138.618439,102.587128 
z"/>
<path fill="#814247" opacity="1.000000" stroke="none" 
	d="
M120.866089,117.451584 
	C123.201836,117.140533 125.868690,117.103867 129.040741,117.109055 
	C126.763039,117.342590 123.980118,117.534286 120.866089,117.451584 
z"/>
<path fill="#814247" opacity="1.000000" stroke="none" 
	d="
M130.293427,116.980782 
	C130.537170,116.400543 131.086807,115.796638 131.980896,115.261826 
	C131.750000,115.872978 131.174667,116.415047 130.293427,116.980782 
z"/>
<path fill="#814247" opacity="1.000000" stroke="none" 
	d="
M127.968544,124.653336 
	C127.019577,125.003296 125.975853,125.007423 124.529587,124.984138 
	C125.375969,124.740311 126.624870,124.523903 127.968544,124.653336 
z"/>
<path fill="#9A5D69" opacity="1.000000" stroke="none" 
	d="
M96.954102,125.813614 
	C96.656052,126.004677 96.390419,125.877960 96.077347,125.429115 
	C95.971855,125.228668 96.444893,125.142784 96.681717,125.182449 
	C96.918533,125.222115 96.928467,125.617516 96.954102,125.813614 
z"/>
<path fill="#892B31" opacity="1.000000" stroke="none" 
	d="
M160.262451,88.803070 
	C158.004288,89.802536 155.746109,90.802010 153.002151,92.016487 
	C153.002151,86.093605 153.172623,81.564072 152.953796,77.053436 
	C152.738647,72.618889 155.040176,72.518066 157.769241,73.279778 
	C158.367615,78.577461 158.933578,83.588173 159.836777,88.786728 
	C160.174011,88.974571 160.262451,88.803062 160.262451,88.803070 
z"/>
<path fill="#F2E2E4" opacity="1.000000" stroke="none" 
	d="
M160.222855,88.887810 
	C160.477249,83.905609 158.458115,78.705200 161.957092,74.036453 
	C164.950775,76.674225 165.822006,86.654274 163.402832,89.083832 
	C162.992798,89.495628 161.750916,89.079147 160.577911,88.924194 
	C160.262451,88.803062 160.174011,88.974571 160.222855,88.887810 
z"/>
<path fill="#FFFEFE" opacity="1.000000" stroke="none" 
	d="
M138.920685,92.780052 
	C139.229813,93.961983 139.438522,95.074341 139.796631,96.496964 
	C139.341187,96.938797 138.736343,97.070351 137.379791,97.136658 
	C136.037796,97.067413 135.447525,97.063416 134.857254,97.059418 
	C133.511398,96.975670 132.165558,96.891922 130.423157,96.728836 
	C130.016968,95.681007 130.007339,94.712502 129.999390,93.380737 
	C130.172607,92.936066 130.344116,92.854660 131.007751,92.662094 
	C132.171555,92.291695 132.843231,92.032448 133.961945,91.834076 
	C135.310516,91.903084 136.212051,91.911224 137.113586,91.919357 
	C137.113586,91.919357 137.032196,91.960213 137.205872,92.198593 
	C137.784439,92.558983 138.189316,92.681007 138.594193,92.803024 
	C138.594193,92.803024 138.820297,92.710480 138.920685,92.780052 
z"/>
<path fill="#FBF0F1" opacity="1.000000" stroke="none" 
	d="
M137.101669,91.597153 
	C136.212051,91.911224 135.310516,91.903084 133.932632,91.535057 
	C133.005493,90.127380 132.554703,89.079590 132.103912,88.031799 
	C132.103912,88.031799 132.046234,88.031105 132.061432,88.055740 
	C133.126572,87.929756 134.176498,87.779144 135.618195,87.554947 
	C139.557709,87.838531 137.733795,89.724648 137.101669,91.597153 
z"/>
<path fill="#FBF0F1" opacity="1.000000" stroke="none" 
	d="
M138.405579,92.554825 
	C138.189316,92.681007 137.784439,92.558983 137.217804,92.154648 
	C137.443024,92.017090 137.829987,92.161858 138.405579,92.554825 
z"/>
<path fill="#FBF0F1" opacity="1.000000" stroke="none" 
	d="
M135.071884,97.290314 
	C135.447525,97.063416 136.037796,97.067413 137.069489,97.128700 
	C136.769455,97.297729 136.027985,97.409470 135.071884,97.290314 
z"/>
<path fill="#7E3C41" opacity="1.000000" stroke="none" 
	d="
M179.408829,125.047256 
	C178.912903,125.071373 178.699890,125.057915 178.170197,124.997940 
	C179.144379,124.756516 180.435211,124.561623 181.920929,124.678452 
	C181.307770,124.996681 180.499756,125.003189 179.408829,125.047256 
z"/>
<path fill="#873F45" opacity="1.000000" stroke="none" 
	d="
M131.820007,88.221085 
	C132.554703,89.079590 133.005493,90.127380 133.485596,91.474182 
	C132.843231,92.032448 132.171555,92.291695 131.236740,92.492805 
	C131.161118,91.093239 131.348618,89.751808 131.820007,88.221085 
z"/>
<path fill="#FBF0F1" opacity="1.000000" stroke="none" 
	d="
M186.013489,127.196655 
	C186.236145,127.370628 186.237946,127.546432 186.239746,127.722244 
	C186.092850,127.722893 185.834076,127.761429 185.819138,127.717369 
	C185.765671,127.559525 185.794769,127.373718 186.013489,127.196655 
z"/>
</svg>